<svg xmlns="http://www.w3.org/2000/svg" viewBox="0 0 24 24" preserveAspectRatio="xMidYMid meet" focusable="false" class="style-scope yt-icon" style="pointer-events: none; display: block; width: 100%; height: 100%;"><g class="style-scope yt-icon"><path d="M16,16H8v-2h8V16z M16,11h-2v2h2V11z M19,11h-2v2h2V11z M13,11h-2v2h2V11z M10,11H8v2h2V11z M7,11H5v2h2V11z M16,8h-2v2h2V8 z M19,8h-2v2h2V8z M13,8h-2v2h2V8z M10,8H8v2h2V8z M7,8H5v2h2V8z M22,5v14H2V5H22z M21,6H3v12h18V6z" class="style-scope yt-icon"></path></g></svg>